<svg width="212" height="70" viewBox="0 0 212 70" fill="none" xmlns="http://www.w3.org/2000/svg">
<g filter="url(#filter0_d_3_309)">
<g clip-path="url(#clip0_3_309)">
<rect x="7" y="2" width="198" height="56" rx="28" fill="#DBA50B"/>
<g opacity="0.25">
<path d="M47.3902 6.85369V0.0244185C47.3902 -0.352752 47.0845 -0.658508 46.7073 -0.658508H7.05652C6.86509 -0.658508 6.68245 -0.578165 6.5531 -0.437052L3.1795 3.24323C3.06405 3.36918 3 3.53384 3 3.7047V29.1074C3 29.2885 3.07195 29.4622 3.20002 29.5903L6.55607 32.9463C6.68415 33.0744 6.85785 33.1464 7.03898 33.1464H46.7073C47.0845 33.1464 47.3902 32.8406 47.3902 32.4634V25.2927C47.3902 24.9155 47.0845 24.6098 46.7073 24.6098H15.6341C15.257 24.6098 14.9512 24.304 14.9512 23.9269V21.1952C14.9512 20.818 15.257 20.5122 15.6341 20.5122H45C45.3772 20.5122 45.6829 20.2065 45.6829 19.8293V12.3171C45.6829 11.9399 45.3772 11.6342 45 11.6342H15.6341C15.257 11.6342 14.9512 11.3284 14.9512 10.9512V8.21954C14.9512 7.84237 15.257 7.53661 15.6341 7.53661H46.7073C47.0845 7.53661 47.3902 7.23086 47.3902 6.85369Z" fill="url(#paint0_linear_3_309)"/>
<path d="M95.937 -1C96.2085 -0.999913 96.4695 -0.891256 96.6616 -0.699219L100.701 3.33887C100.892 3.53089 101 3.79202 101 4.06348V11.6934C101 11.9646 100.892 12.2251 100.701 12.417L96.9643 16.1543C96.8272 16.2914 96.8316 16.515 96.9741 16.6465L100.67 20.0586C100.88 20.2525 101 20.5258 101 20.8115V29.4326C101 29.7184 100.88 29.9917 100.67 30.1855L96.6479 33.8994C96.4587 34.074 96.21 34.1708 95.9526 34.1709H60.6332C60.3759 34.1709 60.1271 34.0739 59.9379 33.8994L55.9155 30.1855C55.7055 29.9917 55.5855 29.7184 55.5854 29.4326V20.8115C55.5854 20.5256 55.7054 20.2525 55.9155 20.0586L59.6127 16.6465C59.7549 16.5152 59.7588 16.2915 59.6225 16.1543L55.8862 12.417C55.6942 12.225 55.5856 11.9648 55.5854 11.6934V4.06348C55.5854 3.79187 55.6941 3.53092 55.8862 3.33887L59.9243 -0.699219C60.1163 -0.891277 60.3773 -0.999941 60.6489 -1H95.937ZM68.9028 21.1953C68.5256 21.1953 68.2192 21.5008 68.2192 21.8779V24.6094C68.2192 24.9865 68.5256 25.293 68.9028 25.293H87.3412C87.7184 25.293 88.0248 24.9865 88.0248 24.6094V21.8779C88.0248 21.5008 87.7184 21.1953 87.3412 21.1953H68.9028ZM68.9028 6.85352C68.5258 6.85352 68.2194 7.15917 68.2192 7.53613V10.2686C68.2193 10.6456 68.5257 10.9512 68.9028 10.9512H87.3412C87.7183 10.9512 88.0247 10.6456 88.0248 10.2686V7.53613C88.0246 7.15917 87.7183 6.85352 87.3412 6.85352H68.9028Z" fill="url(#paint1_linear_3_309)"/>
</g>
<g opacity="0.25">
<path d="M151.39 40.8537V34.0244C151.39 33.6472 151.084 33.3415 150.707 33.3415H111.057C110.865 33.3415 110.682 33.4218 110.553 33.5629L107.18 37.2432C107.064 37.3692 107 37.5338 107 37.7047V63.1074C107 63.2885 107.072 63.4622 107.2 63.5903L110.556 66.9463C110.684 67.0744 110.858 67.1464 111.039 67.1464H150.707C151.084 67.1464 151.39 66.8406 151.39 66.4634V59.2927C151.39 58.9155 151.084 58.6098 150.707 58.6098H119.634C119.257 58.6098 118.951 58.304 118.951 57.9269V55.1952C118.951 54.818 119.257 54.5122 119.634 54.5122H149C149.377 54.5122 149.683 54.2065 149.683 53.8293V46.3171C149.683 45.9399 149.377 45.6342 149 45.6342H119.634C119.257 45.6342 118.951 45.3284 118.951 44.9512V42.2195C118.951 41.8424 119.257 41.5366 119.634 41.5366H150.707C151.084 41.5366 151.39 41.2309 151.39 40.8537Z" fill="url(#paint2_linear_3_309)"/>
<path d="M199.937 33C200.208 33.0001 200.469 33.1087 200.662 33.3008L204.701 37.3389C204.892 37.5309 205 37.792 205 38.0635V45.6934C205 45.9646 204.892 46.2251 204.701 46.417L200.964 50.1543C200.827 50.2914 200.832 50.515 200.974 50.6465L204.67 54.0586C204.88 54.2525 205 54.5258 205 54.8115V63.4326C205 63.7184 204.88 63.9917 204.67 64.1855L200.648 67.8994C200.459 68.074 200.21 68.1708 199.953 68.1709H164.633C164.376 68.1709 164.127 68.0739 163.938 67.8994L159.915 64.1855C159.705 63.9917 159.585 63.7184 159.585 63.4326V54.8115C159.585 54.5256 159.705 54.2525 159.915 54.0586L163.613 50.6465C163.755 50.5152 163.759 50.2915 163.622 50.1543L159.886 46.417C159.694 46.225 159.586 45.9648 159.585 45.6934V38.0635C159.585 37.7919 159.694 37.5309 159.886 37.3389L163.924 33.3008C164.116 33.1087 164.377 33.0001 164.649 33H199.937ZM172.903 55.1953C172.526 55.1953 172.219 55.5008 172.219 55.8779V58.6094C172.219 58.9865 172.526 59.293 172.903 59.293H191.341C191.718 59.293 192.025 58.9865 192.025 58.6094V55.8779C192.025 55.5008 191.718 55.1953 191.341 55.1953H172.903ZM172.903 40.8535C172.526 40.8535 172.219 41.1592 172.219 41.5361V44.2686C172.219 44.6456 172.526 44.9512 172.903 44.9512H191.341C191.718 44.9512 192.025 44.6456 192.025 44.2686V41.5361C192.025 41.1592 191.718 40.8535 191.341 40.8535H172.903Z" fill="url(#paint3_linear_3_309)"/>
</g>
<path d="M77.4719 37V22.4545H80.9876V34.1449H87.0387V37H77.4719ZM93.951 37.206C92.8052 37.206 91.8203 36.9716 90.9964 36.5028C90.1773 36.0294 89.5452 35.3712 89.1001 34.5284C88.6598 33.6809 88.4396 32.6984 88.4396 31.581C88.4396 30.4588 88.6598 29.4763 89.1001 28.6335C89.5452 27.786 90.1773 27.1278 90.9964 26.6591C91.8203 26.1856 92.8052 25.9489 93.951 25.9489C95.0968 25.9489 96.0793 26.1856 96.8984 26.6591C97.7223 27.1278 98.3544 27.786 98.7947 28.6335C99.2398 29.4763 99.4624 30.4588 99.4624 31.581C99.4624 32.6984 99.2398 33.6809 98.7947 34.5284C98.3544 35.3712 97.7223 36.0294 96.8984 36.5028C96.0793 36.9716 95.0968 37.206 93.951 37.206ZM93.9723 34.5852C94.389 34.5852 94.7417 34.4574 95.0305 34.2017C95.3194 33.946 95.5395 33.5909 95.6911 33.1364C95.8473 32.6818 95.9254 32.1562 95.9254 31.5597C95.9254 30.9536 95.8473 30.4233 95.6911 29.9688C95.5395 29.5142 95.3194 29.1591 95.0305 28.9034C94.7417 28.6477 94.389 28.5199 93.9723 28.5199C93.5414 28.5199 93.1768 28.6477 92.8786 28.9034C92.585 29.1591 92.3601 29.5142 92.2038 29.9688C92.0523 30.4233 91.9766 30.9536 91.9766 31.5597C91.9766 32.1562 92.0523 32.6818 92.2038 33.1364C92.3601 33.5909 92.585 33.946 92.8786 34.2017C93.1768 34.4574 93.5414 34.5852 93.9723 34.5852ZM106.327 41.3182C105.29 41.3182 104.402 41.1738 103.663 40.8849C102.925 40.5961 102.345 40.2008 101.923 39.6989C101.502 39.197 101.249 38.6288 101.163 37.9943L104.452 37.8097C104.513 38.0322 104.627 38.2263 104.793 38.392C104.963 38.5578 105.183 38.6856 105.453 38.7756C105.728 38.8655 106.05 38.9105 106.419 38.9105C107.001 38.9105 107.482 38.7685 107.861 38.4844C108.244 38.205 108.436 37.715 108.436 37.0142V35.0966H108.315C108.178 35.4328 107.97 35.7334 107.69 35.9986C107.411 36.2637 107.063 36.4721 106.646 36.6236C106.234 36.7751 105.761 36.8509 105.226 36.8509C104.43 36.8509 103.701 36.6662 103.038 36.2969C102.38 35.9228 101.852 35.3452 101.455 34.5639C101.062 33.7779 100.865 32.767 100.865 31.5312C100.865 30.2576 101.069 29.2088 101.476 28.3849C101.883 27.5563 102.416 26.9432 103.074 26.5455C103.737 26.1477 104.449 25.9489 105.212 25.9489C105.785 25.9489 106.275 26.0483 106.682 26.2472C107.094 26.4413 107.432 26.6922 107.697 27C107.963 27.3078 108.164 27.6274 108.301 27.9588H108.401V26.0909H111.859V37.0426C111.859 37.9659 111.627 38.7448 111.163 39.3793C110.699 40.0137 110.051 40.4943 109.217 40.821C108.384 41.1525 107.42 41.3182 106.327 41.3182ZM106.433 34.3224C106.855 34.3224 107.214 34.2112 107.513 33.9886C107.811 33.7661 108.041 33.4465 108.202 33.0298C108.363 32.6132 108.443 32.1136 108.443 31.5312C108.443 30.9394 108.363 30.4304 108.202 30.0043C108.045 29.5734 107.816 29.242 107.513 29.0099C107.214 28.7779 106.855 28.6619 106.433 28.6619C106.002 28.6619 105.638 28.7803 105.339 29.017C105.041 29.2538 104.814 29.5876 104.658 30.0185C104.506 30.4446 104.43 30.9489 104.43 31.5312C104.43 32.1136 104.509 32.6132 104.665 33.0298C104.821 33.4465 105.046 33.7661 105.339 33.9886C105.638 34.2112 106.002 34.3224 106.433 34.3224ZM118.37 37V26.0909H121.843V37H118.37ZM120.11 24.8196C119.623 24.8196 119.204 24.6586 118.853 24.3366C118.503 24.0099 118.328 23.617 118.328 23.1577C118.328 22.7031 118.503 22.3149 118.853 21.9929C119.204 21.6662 119.623 21.5028 120.11 21.5028C120.603 21.5028 121.022 21.6662 121.368 21.9929C121.718 22.3149 121.893 22.7031 121.893 23.1577C121.893 23.617 121.718 24.0099 121.368 24.3366C121.022 24.6586 120.603 24.8196 120.11 24.8196ZM127.527 30.7784V37H124.054V26.0909H127.357V28.0938H127.477C127.719 27.4261 128.131 26.9029 128.713 26.5241C129.295 26.1406 129.989 25.9489 130.794 25.9489C131.561 25.9489 132.226 26.1217 132.79 26.4673C133.358 26.8082 133.798 27.2865 134.111 27.902C134.428 28.5128 134.584 29.2277 134.58 30.0469V37H131.107V30.7287C131.111 30.1226 130.957 29.6491 130.645 29.3082C130.337 28.9673 129.909 28.7969 129.359 28.7969C128.995 28.7969 128.673 28.8774 128.393 29.0384C128.119 29.1946 127.906 29.4195 127.754 29.7131C127.607 30.0066 127.532 30.3617 127.527 30.7784Z" fill="black"/>
</g>
</g>
<defs>
<filter id="filter0_d_3_309" x="0" y="0" width="212" height="70" filterUnits="userSpaceOnUse" color-interpolation-filters="sRGB">
<feFlood flood-opacity="0" result="BackgroundImageFix"/>
<feColorMatrix in="SourceAlpha" type="matrix" values="0 0 0 0 0 0 0 0 0 0 0 0 0 0 0 0 0 0 127 0" result="hardAlpha"/>
<feOffset dy="5"/>
<feGaussianBlur stdDeviation="3.5"/>
<feComposite in2="hardAlpha" operator="out"/>
<feColorMatrix type="matrix" values="0 0 0 0 0.858824 0 0 0 0 0.647059 0 0 0 0 0.0431373 0 0 0 0.19 0"/>
<feBlend mode="normal" in2="BackgroundImageFix" result="effect1_dropShadow_3_309"/>
<feBlend mode="normal" in="SourceGraphic" in2="effect1_dropShadow_3_309" result="shape"/>
</filter>
<linearGradient id="paint0_linear_3_309" x1="25.1951" y1="-0.658508" x2="25.1951" y2="33.1464" gradientUnits="userSpaceOnUse">
<stop stop-color="#CD9700"/>
<stop offset="1" stop-color="#755806"/>
</linearGradient>
<linearGradient id="paint1_linear_3_309" x1="78.2929" y1="-1" x2="78.2929" y2="34.1709" gradientUnits="userSpaceOnUse">
<stop stop-color="#CD9700"/>
<stop offset="1" stop-color="#755806"/>
</linearGradient>
<linearGradient id="paint2_linear_3_309" x1="129.195" y1="33.3415" x2="129.195" y2="67.1464" gradientUnits="userSpaceOnUse">
<stop stop-color="#CD9700"/>
<stop offset="1" stop-color="#755806"/>
</linearGradient>
<linearGradient id="paint3_linear_3_309" x1="182.293" y1="33" x2="182.293" y2="68.1709" gradientUnits="userSpaceOnUse">
<stop stop-color="#CD9700"/>
<stop offset="1" stop-color="#755806"/>
</linearGradient>
<clipPath id="clip0_3_309">
<rect x="7" y="2" width="198" height="56" rx="28" fill="white"/>
</clipPath>
</defs>
</svg>
