<svg width="212" height="70" viewBox="0 0 212 70" fill="none" xmlns="http://www.w3.org/2000/svg">
<g filter="url(#filter0_d_3_239)">
<g clip-path="url(#clip0_3_239)">
<rect x="7" y="2" width="198" height="56" rx="28" fill="#DBA50B"/>
<g opacity="0.25">
<path d="M47.3902 6.85369V0.0244185C47.3902 -0.352752 47.0845 -0.658508 46.7073 -0.658508H7.05652C6.86509 -0.658508 6.68245 -0.578165 6.5531 -0.437052L3.1795 3.24323C3.06405 3.36918 3 3.53384 3 3.7047V29.1074C3 29.2885 3.07195 29.4622 3.20002 29.5903L6.55607 32.9463C6.68415 33.0744 6.85785 33.1464 7.03898 33.1464H46.7073C47.0845 33.1464 47.3902 32.8406 47.3902 32.4634V25.2927C47.3902 24.9155 47.0845 24.6098 46.7073 24.6098H15.6341C15.257 24.6098 14.9512 24.304 14.9512 23.9269V21.1952C14.9512 20.818 15.257 20.5122 15.6341 20.5122H45C45.3772 20.5122 45.6829 20.2065 45.6829 19.8293V12.3171C45.6829 11.9399 45.3772 11.6342 45 11.6342H15.6341C15.257 11.6342 14.9512 11.3284 14.9512 10.9512V8.21954C14.9512 7.84237 15.257 7.53661 15.6341 7.53661H46.7073C47.0845 7.53661 47.3902 7.23086 47.3902 6.85369Z" fill="url(#paint0_linear_3_239)"/>
<path d="M95.9369 -1C96.2085 -0.999913 96.4695 -0.891256 96.6615 -0.699219L100.701 3.33887C100.892 3.53089 101 3.79202 101 4.06348V11.6934C101 11.9646 100.892 12.2251 100.701 12.417L96.9643 16.1543C96.8272 16.2914 96.8316 16.515 96.974 16.6465L100.67 20.0586C100.88 20.2525 101 20.5258 101 20.8115V29.4326C101 29.7184 100.88 29.9917 100.67 30.1855L96.6479 33.8994C96.4587 34.074 96.21 34.1708 95.9526 34.1709H60.6332C60.3758 34.1709 60.1271 34.0739 59.9379 33.8994L55.9154 30.1855C55.7054 29.9917 55.5855 29.7184 55.5854 29.4326V20.8115C55.5854 20.5256 55.7054 20.2525 55.9154 20.0586L59.6127 16.6465C59.7549 16.5152 59.7588 16.2915 59.6225 16.1543L55.8861 12.417C55.6942 12.225 55.5855 11.9648 55.5854 11.6934V4.06348C55.5854 3.79187 55.6941 3.53092 55.8861 3.33887L59.9242 -0.699219C60.1163 -0.891277 60.3772 -0.999941 60.6488 -1H95.9369ZM68.9027 21.1953C68.5256 21.1953 68.2192 21.5008 68.2192 21.8779V24.6094C68.2192 24.9865 68.5256 25.293 68.9027 25.293H87.3412C87.7184 25.293 88.0248 24.9865 88.0248 24.6094V21.8779C88.0248 21.5008 87.7184 21.1953 87.3412 21.1953H68.9027ZM68.9027 6.85352C68.5257 6.85352 68.2194 7.15917 68.2192 7.53613V10.2686C68.2193 10.6456 68.5257 10.9512 68.9027 10.9512H87.3412C87.7183 10.9512 88.0247 10.6456 88.0248 10.2686V7.53613C88.0246 7.15917 87.7182 6.85352 87.3412 6.85352H68.9027Z" fill="url(#paint1_linear_3_239)"/>
</g>
<g opacity="0.25">
<path d="M151.39 40.8537V34.0244C151.39 33.6472 151.084 33.3415 150.707 33.3415H111.057C110.865 33.3415 110.682 33.4218 110.553 33.5629L107.18 37.2432C107.064 37.3692 107 37.5338 107 37.7047V63.1074C107 63.2885 107.072 63.4622 107.2 63.5903L110.556 66.9463C110.684 67.0744 110.858 67.1464 111.039 67.1464H150.707C151.084 67.1464 151.39 66.8406 151.39 66.4634V59.2927C151.39 58.9155 151.084 58.6098 150.707 58.6098H119.634C119.257 58.6098 118.951 58.304 118.951 57.9269V55.1952C118.951 54.818 119.257 54.5122 119.634 54.5122H149C149.377 54.5122 149.683 54.2065 149.683 53.8293V46.3171C149.683 45.9399 149.377 45.6342 149 45.6342H119.634C119.257 45.6342 118.951 45.3284 118.951 44.9512V42.2195C118.951 41.8424 119.257 41.5366 119.634 41.5366H150.707C151.084 41.5366 151.39 41.2309 151.39 40.8537Z" fill="url(#paint2_linear_3_239)"/>
<path d="M199.937 33C200.208 33.0001 200.47 33.1087 200.662 33.3008L204.701 37.3389C204.892 37.5309 205 37.792 205 38.0635V45.6934C205 45.9646 204.892 46.2251 204.701 46.417L200.964 50.1543C200.827 50.2914 200.832 50.515 200.974 50.6465L204.67 54.0586C204.88 54.2525 205 54.5258 205 54.8115V63.4326C205 63.7184 204.88 63.9917 204.67 64.1855L200.648 67.8994C200.459 68.074 200.21 68.1708 199.953 68.1709H164.633C164.376 68.1709 164.127 68.0739 163.938 67.8994L159.915 64.1855C159.705 63.9917 159.585 63.7184 159.585 63.4326V54.8115C159.585 54.5256 159.705 54.2525 159.915 54.0586L163.613 50.6465C163.755 50.5152 163.759 50.2915 163.622 50.1543L159.886 46.417C159.694 46.225 159.586 45.9648 159.585 45.6934V38.0635C159.585 37.7919 159.694 37.5309 159.886 37.3389L163.924 33.3008C164.116 33.1087 164.377 33.0001 164.649 33H199.937ZM172.903 55.1953C172.526 55.1953 172.219 55.5008 172.219 55.8779V58.6094C172.219 58.9865 172.526 59.293 172.903 59.293H191.341C191.718 59.293 192.025 58.9865 192.025 58.6094V55.8779C192.025 55.5008 191.718 55.1953 191.341 55.1953H172.903ZM172.903 40.8535C172.526 40.8535 172.219 41.1592 172.219 41.5361V44.2686C172.219 44.6456 172.526 44.9512 172.903 44.9512H191.341C191.718 44.9512 192.025 44.6456 192.025 44.2686V41.5361C192.025 41.1592 191.718 40.8535 191.341 40.8535H172.903Z" fill="url(#paint3_linear_3_239)"/>
</g>
<path d="M76.965 26.8153C76.9177 26.2945 76.707 25.8897 76.3329 25.6009C75.9636 25.3073 75.4357 25.1605 74.7491 25.1605C74.2946 25.1605 73.9158 25.2197 73.6127 25.3381C73.3097 25.4564 73.0824 25.6198 72.9309 25.8281C72.7794 26.0317 72.7013 26.2661 72.6966 26.5312C72.6871 26.7491 72.7297 26.9408 72.8244 27.1065C72.9238 27.2723 73.0659 27.419 73.2505 27.5469C73.4399 27.67 73.6672 27.7789 73.9324 27.8736C74.1975 27.9683 74.4958 28.0511 74.8272 28.1222L76.0772 28.4062C76.7969 28.5625 77.4314 28.7708 77.9806 29.0312C78.5346 29.2917 78.9986 29.6018 79.3727 29.9616C79.7515 30.3215 80.0379 30.7358 80.2321 31.2045C80.4262 31.6733 80.5256 32.1989 80.5304 32.7812C80.5256 33.6998 80.2936 34.4882 79.8343 35.1463C79.3751 35.8045 78.7145 36.3087 77.8528 36.6591C76.9958 37.0095 75.9612 37.1847 74.7491 37.1847C73.5323 37.1847 72.4717 37.0024 71.5673 36.6378C70.6629 36.2732 69.9598 35.7192 69.4579 34.9759C68.956 34.2325 68.698 33.2926 68.6838 32.1562H72.0502C72.0787 32.625 72.2041 33.0156 72.4267 33.3281C72.6492 33.6406 72.9546 33.8774 73.3429 34.0384C73.7359 34.1993 74.1904 34.2798 74.7065 34.2798C75.18 34.2798 75.5824 34.2159 75.9139 34.0881C76.2501 33.9602 76.5081 33.7827 76.688 33.5554C76.868 33.3281 76.9603 33.0677 76.965 32.7741C76.9603 32.4995 76.8751 32.2652 76.7093 32.071C76.5436 31.8722 76.2879 31.7017 75.9423 31.5597C75.6014 31.4129 75.1658 31.2779 74.6355 31.1548L73.1156 30.7997C71.8561 30.5109 70.8642 30.0445 70.1397 29.4006C69.4153 28.7519 69.0555 27.8759 69.0602 26.7727C69.0555 25.8731 69.2969 25.0848 69.7846 24.4077C70.2723 23.7306 70.947 23.2027 71.8088 22.8239C72.6705 22.4451 73.653 22.2557 74.7562 22.2557C75.8831 22.2557 76.8609 22.4474 77.6895 22.831C78.5228 23.2098 79.1691 23.7424 79.6284 24.429C80.0877 25.1155 80.322 25.911 80.3315 26.8153H76.965ZM82.3059 37V26.0909H85.7789V37H82.3059ZM84.046 24.8196C83.5583 24.8196 83.1393 24.6586 82.7889 24.3366C82.4385 24.0099 82.2633 23.617 82.2633 23.1577C82.2633 22.7031 82.4385 22.3149 82.7889 21.9929C83.1393 21.6662 83.5583 21.5028 84.046 21.5028C84.5384 21.5028 84.9574 21.6662 85.3031 21.9929C85.6535 22.3149 85.8287 22.7031 85.8287 23.1577C85.8287 23.617 85.6535 24.0099 85.3031 24.3366C84.9574 24.6586 84.5384 24.8196 84.046 24.8196ZM93.0748 41.3182C92.0378 41.3182 91.15 41.1738 90.4114 40.8849C89.6728 40.5961 89.0927 40.2008 88.6713 39.6989C88.2499 39.197 87.9966 38.6288 87.9114 37.9943L91.1998 37.8097C91.2613 38.0322 91.3749 38.2263 91.5407 38.392C91.7111 38.5578 91.9313 38.6856 92.2012 38.7756C92.4758 38.8655 92.7978 38.9105 93.1671 38.9105C93.7495 38.9105 94.2301 38.7685 94.6088 38.4844C94.9924 38.205 95.1841 37.715 95.1841 37.0142V35.0966H95.0634C94.9261 35.4328 94.7177 35.7334 94.4384 35.9986C94.159 36.2637 93.811 36.4721 93.3944 36.6236C92.9824 36.7751 92.5089 36.8509 91.9739 36.8509C91.1784 36.8509 90.4493 36.6662 89.7864 36.2969C89.1283 35.9228 88.6003 35.3452 88.2026 34.5639C87.8096 33.7779 87.6131 32.767 87.6131 31.5312C87.6131 30.2576 87.8167 29.2088 88.2239 28.3849C88.6311 27.5563 89.1638 26.9432 89.8219 26.5455C90.4848 26.1477 91.1974 25.9489 91.9597 25.9489C92.5326 25.9489 93.0227 26.0483 93.4299 26.2472C93.8418 26.4413 94.1803 26.6922 94.4455 27C94.7106 27.3078 94.9119 27.6274 95.0492 27.9588H95.1486V26.0909H98.6074V37.0426C98.6074 37.9659 98.3754 38.7448 97.9114 39.3793C97.4474 40.0137 96.7987 40.4943 95.9654 40.821C95.132 41.1525 94.1685 41.3182 93.0748 41.3182ZM93.1813 34.3224C93.6027 34.3224 93.9625 34.2112 94.2608 33.9886C94.5591 33.7661 94.7888 33.4465 94.9498 33.0298C95.1107 32.6132 95.1912 32.1136 95.1912 31.5312C95.1912 30.9394 95.1107 30.4304 94.9498 30.0043C94.7935 29.5734 94.5639 29.242 94.2608 29.0099C93.9625 28.7779 93.6027 28.6619 93.1813 28.6619C92.7504 28.6619 92.3858 28.7803 92.0875 29.017C91.7892 29.2538 91.562 29.5876 91.4057 30.0185C91.2542 30.4446 91.1784 30.9489 91.1784 31.5312C91.1784 32.1136 91.2566 32.6132 91.4128 33.0298C91.5691 33.4465 91.794 33.7661 92.0875 33.9886C92.3858 34.2112 92.7504 34.3224 93.1813 34.3224ZM104.295 30.7784V37H100.822V26.0909H104.124V28.0938H104.245C104.486 27.4261 104.898 26.9029 105.481 26.5241C106.063 26.1406 106.757 25.9489 107.562 25.9489C108.329 25.9489 108.994 26.1217 109.557 26.4673C110.126 26.8082 110.566 27.2865 110.878 27.902C111.196 28.5128 111.352 29.2277 111.347 30.0469V37H107.874V30.7287C107.879 30.1226 107.725 29.6491 107.412 29.3082C107.105 28.9673 106.676 28.7969 106.127 28.7969C105.762 28.7969 105.44 28.8774 105.161 29.0384C104.886 29.1946 104.673 29.4195 104.522 29.7131C104.375 30.0066 104.299 30.3617 104.295 30.7784ZM126.594 22.4545H130.102V31.8366C130.102 32.9209 129.844 33.8655 129.328 34.6705C128.812 35.4706 128.093 36.0909 127.169 36.5312C126.246 36.9669 125.173 37.1847 123.952 37.1847C122.716 37.1847 121.637 36.9669 120.713 36.5312C119.79 36.0909 119.073 35.4706 118.561 34.6705C118.05 33.8655 117.794 32.9209 117.794 31.8366V22.4545H121.31V31.5312C121.31 32.0331 121.419 32.4806 121.637 32.8736C121.859 33.2666 122.169 33.5743 122.567 33.7969C122.965 34.0194 123.426 34.1307 123.952 34.1307C124.477 34.1307 124.937 34.0194 125.33 33.7969C125.727 33.5743 126.038 33.2666 126.26 32.8736C126.483 32.4806 126.594 32.0331 126.594 31.5312V22.4545ZM132.306 41.0909V26.0909H135.743V27.9588H135.85C135.992 27.6274 136.193 27.3078 136.454 27C136.719 26.6922 137.055 26.4413 137.462 26.2472C137.874 26.0483 138.367 25.9489 138.939 25.9489C139.697 25.9489 140.405 26.1477 141.063 26.5455C141.726 26.9432 142.261 27.5563 142.668 28.3849C143.075 29.2135 143.279 30.2694 143.279 31.5526C143.279 32.7884 143.082 33.8229 142.689 34.6562C142.301 35.4896 141.776 36.1146 141.113 36.5312C140.455 36.9479 139.723 37.1562 138.918 37.1562C138.369 37.1562 137.893 37.0663 137.491 36.8864C137.088 36.7064 136.75 36.4697 136.475 36.1761C136.205 35.8826 135.997 35.5677 135.85 35.2315H135.779V41.0909H132.306ZM135.708 31.5455C135.708 32.1326 135.786 32.6439 135.942 33.0795C136.103 33.5152 136.333 33.8537 136.631 34.0952C136.934 34.3319 137.296 34.4503 137.718 34.4503C138.144 34.4503 138.506 34.3319 138.805 34.0952C139.103 33.8537 139.328 33.5152 139.479 33.0795C139.635 32.6439 139.714 32.1326 139.714 31.5455C139.714 30.9583 139.635 30.4493 139.479 30.0185C139.328 29.5876 139.103 29.2538 138.805 29.017C138.511 28.7803 138.149 28.6619 137.718 28.6619C137.292 28.6619 136.93 28.7779 136.631 29.0099C136.333 29.242 136.103 29.5734 135.942 30.0043C135.786 30.4351 135.708 30.9489 135.708 31.5455Z" fill="black"/>
</g>
</g>
<defs>
<filter id="filter0_d_3_239" x="0" y="0" width="212" height="70" filterUnits="userSpaceOnUse" color-interpolation-filters="sRGB">
<feFlood flood-opacity="0" result="BackgroundImageFix"/>
<feColorMatrix in="SourceAlpha" type="matrix" values="0 0 0 0 0 0 0 0 0 0 0 0 0 0 0 0 0 0 127 0" result="hardAlpha"/>
<feOffset dy="5"/>
<feGaussianBlur stdDeviation="3.5"/>
<feComposite in2="hardAlpha" operator="out"/>
<feColorMatrix type="matrix" values="0 0 0 0 0.858824 0 0 0 0 0.647059 0 0 0 0 0.0431373 0 0 0 0.19 0"/>
<feBlend mode="normal" in2="BackgroundImageFix" result="effect1_dropShadow_3_239"/>
<feBlend mode="normal" in="SourceGraphic" in2="effect1_dropShadow_3_239" result="shape"/>
</filter>
<linearGradient id="paint0_linear_3_239" x1="25.1951" y1="-0.658508" x2="25.1951" y2="33.1464" gradientUnits="userSpaceOnUse">
<stop stop-color="#CD9700"/>
<stop offset="1" stop-color="#755806"/>
</linearGradient>
<linearGradient id="paint1_linear_3_239" x1="78.2929" y1="-1" x2="78.2929" y2="34.1709" gradientUnits="userSpaceOnUse">
<stop stop-color="#CD9700"/>
<stop offset="1" stop-color="#755806"/>
</linearGradient>
<linearGradient id="paint2_linear_3_239" x1="129.195" y1="33.3415" x2="129.195" y2="67.1464" gradientUnits="userSpaceOnUse">
<stop stop-color="#CD9700"/>
<stop offset="1" stop-color="#755806"/>
</linearGradient>
<linearGradient id="paint3_linear_3_239" x1="182.293" y1="33" x2="182.293" y2="68.1709" gradientUnits="userSpaceOnUse">
<stop stop-color="#CD9700"/>
<stop offset="1" stop-color="#755806"/>
</linearGradient>
<clipPath id="clip0_3_239">
<rect x="7" y="2" width="198" height="56" rx="28" fill="white"/>
</clipPath>
</defs>
</svg>
